# This file uses inches as units for non-parametric coordinates.

mtllib Level1_Sec1.mtl
g default
v -18.547218 0.123958 18.547218
v 18.547218 0.123958 18.547218
v -18.547218 0.123958 -18.547218
v 18.547218 0.123958 -18.547218
v 7.418887 0.123958 -18.547218
v 7.418887 0.123958 18.547218
v -8.160776 0.123958 -18.547218
v -8.160776 0.123958 18.547218
v -8.160776 0.123958 60.359711
v 7.418887 0.123958 60.359711
v -8.160776 0.123958 106.803436
v 7.418887 0.123958 106.803436
v -43.180000 0.123958 60.359711
v -43.180000 0.123958 106.803436
v 22.418886 0.123958 60.359711
v 22.418886 0.123958 106.803436
v -29.172312 0.123958 60.359711
v -29.172312 0.123958 106.803436
v -14.464237 0.123958 60.359711
v -14.464237 0.123958 106.803436
v -14.464237 0.123958 174.877869
v -29.172312 0.123958 174.877869
v -14.464237 0.123958 230.723755
v -29.172312 0.123958 230.723755
v -81.197395 0.123958 174.877869
v -81.197395 0.123958 230.723755
v -14.464237 0.123958 184.043594
v -29.172312 0.123958 184.043594
v -95.498497 0.123958 184.043594
v -14.464237 0.123958 218.765747
v -29.172312 0.123958 218.765747
v -95.498497 0.123958 218.765747
v -182.165466 15.289602 184.043594
v -182.165466 15.289602 218.765747
v -321.285156 15.289602 184.043594
v -321.285156 15.289602 218.765747
v -182.165466 15.289602 380.330078
v -321.285156 15.289602 380.330078
v -279.549255 15.289602 184.043610
v -279.549255 15.289602 218.765747
v -279.549255 15.289602 380.330078
v -230.857361 15.289602 184.043610
v -230.857361 15.289602 218.765747
v -230.857361 15.289602 380.330078
v -182.165466 15.289602 567.000427
v -230.857361 15.289602 567.000427
v -279.549255 15.289602 567.000427
v -321.285156 15.289602 567.000427
vt 0.763884 0.004155
vt 0.083828 0.249944
vt 0.662963 0.340556
vt 0.662963 0.004155
vt 0.905172 0.004155
vt 0.905172 0.340556
vt 0.999364 0.340556
vt 0.999364 0.004155
vt 0.148681 0.423995
vt 0.083828 0.423995
vt 0.148681 0.617325
vt 0.083828 0.617325
vt 0.174920 0.423995
vt 0.174920 0.617325
vt 0.021388 0.617325
vt 0.021388 0.423995
vt 0.236145 0.423995
vt 0.236145 0.617325
vt 0.294454 0.423995
vt 0.294454 0.617325
vt 0.236145 0.900695
vt 0.166239 0.004352
vt 0.246698 0.054492
vt 0.166239 0.054492
vt 0.609528 0.054492
vt 0.531296 0.004352
vt 0.246698 0.244436
vt 0.166239 0.244436
vt 0.602854 0.518416
vt 0.246698 0.309851
vt 0.166239 0.309851
vt 0.531296 0.309851
vt 0.987490 0.364316
vt 0.349167 0.405661
vt 0.431992 0.346599
vt 0.431992 0.405661
vt 0.514817 0.346599
vt 0.514817 0.405661
vt 0.431992 0.680482
vt 0.349167 0.680482
vt 0.585810 0.346599
vt 0.585810 0.405661
vt 0.514817 0.680482
vt 0.431992 0.998008
vt 0.349167 0.998008
vt 0.585810 0.680482
vt 0.585810 0.998008
vt 0.514817 0.998008
vt 0.905172 0.004155
vt 0.905172 0.340556
vt 0.148681 0.249944
vt 0.763884 0.340556
vt 0.763884 0.340556
vt 0.763884 0.004155
vt 0.246698 0.244436
vt 0.246698 0.244436
vt 0.246698 0.244436
vt 0.609528 0.244436
vt 0.609528 0.244436
vt 0.166239 0.244436
vt 0.246698 0.309851
vt 0.246698 0.054492
vt 0.246698 0.054492
vt 0.246698 0.054492
vt 0.609528 0.054492
vt 0.602854 0.364316
vt 0.166239 0.054492
vt 0.246698 0.004352
vt 0.246698 0.004352
vt 0.174920 0.900695
vt 0.349167 0.346599
vt 0.987490 0.518416
vn 0.000000 1.000000 0.000000
vn 0.000000 1.000000 0.000000
vn 0.000000 1.000000 0.000000
vn 0.000000 1.000000 0.000000
vn 0.000000 1.000000 0.000000
vn 0.000000 1.000000 0.000000
vn 0.000000 1.000000 0.000000
vn 0.000000 1.000000 0.000000
vn 0.000000 1.000000 0.000000
vn 0.000000 1.000000 0.000000
vn 0.000000 1.000000 0.000000
vn 0.000000 1.000000 0.000000
vn 0.000000 1.000000 0.000000
vn 0.000000 1.000000 0.000000
vn 0.000000 1.000000 0.000000
vn 0.000000 1.000000 0.000000
vn 0.000000 1.000000 0.000000
vn 0.000000 1.000000 0.000000
vn 0.000000 1.000000 0.000000
vn 0.000000 1.000000 0.000000
vn 0.000000 1.000000 0.000000
vn 0.000000 1.000000 0.000000
vn 0.000000 1.000000 0.000000
vn 0.000000 1.000000 0.000000
vn 0.000000 1.000000 0.000000
vn 0.000000 1.000000 0.000000
vn 0.093191 0.995648 0.000000
vn 0.000000 1.000000 0.000000
vn 0.000000 1.000000 0.000000
vn 0.000000 1.000000 0.000000
vn 0.095151 0.995463 0.000000
vn 0.000000 1.000000 0.000000
vn 0.111344 0.993782 0.000000
vn 0.041866 0.999123 0.000000
vn 0.000000 1.000000 0.000000
vn 0.000000 1.000000 0.000000
vn 0.000000 1.000000 0.000000
vn 0.000000 1.000000 0.000000
vn 0.000000 1.000000 0.000000
vn 0.000000 1.000000 0.000000
vn 0.000000 1.000000 0.000000
vn 0.000000 1.000000 0.000000
vn 0.000000 1.000000 0.000000
vn 0.000000 1.000000 0.000000
vn 0.000000 1.000000 0.000000
vn 0.000000 1.000000 0.000000
vn 0.000000 1.000000 0.000000
vn 0.000000 1.000000 0.000000
s 1
g pCube1
usemtl lambert2SG
f 5/1/1 6/53/2 2/3/3 4/4/4
f 7/5/5 8/50/6 6/52/2 5/54/1
f 1/7/7 8/6/6 7/49/5 3/8/8
f 6/2/2 8/51/6 9/9/9 10/10/10
f 10/10/10 9/9/9 11/11/11 12/12/12
f 11/11/11 9/9/9 19/13/13 20/14/14
f 10/10/10 12/12/12 16/15/15 15/16/16
f 18/18/17 17/17/18 13/19/19 14/20/20
f 20/14/14 19/13/13 17/17/18 18/18/17
f 20/14/14 18/18/17 22/21/21 21/70/22
f 30/28/23 31/56/24 24/61/25 23/31/26
f 24/30/25 31/57/24 32/59/27 26/32/28
f 21/22/22 22/68/21 28/62/29 27/67/30
f 29/25/31 28/23/29 22/69/21 25/26/32
f 27/24/30 28/63/29 31/55/24 30/60/23
f 32/58/27 31/27/24 28/64/29 29/65/31
f 32/29/27 29/66/31 33/33/33 34/72/34
f 34/34/34 33/71/33 42/35/35 43/36/36
f 34/34/34 43/36/36 44/39/37 37/40/38
f 40/38/39 39/37/40 35/41/41 36/42/42
f 41/43/43 40/38/39 36/42/42 38/46/44
f 43/36/36 42/35/35 39/37/40 40/38/39
f 44/39/37 43/36/36 40/38/39 41/43/43
f 37/40/38 44/39/37 46/44/45 45/45/46
f 41/43/43 38/46/44 48/47/47 47/48/48
